PathFileType	4	(X/Y/Z)	/Users/itak/Documents/Research/Walk-IL/dataset/trc/00461_00167.trc
DataRate	CameraRate	NumFrames	NumMarkers	Units	OrigDataRate	OrigDataStartFrame	OrigNumFrames
100.000000	100.000000	4	53	mm	100.000000	0	553
Frame#	Time	RPSI			LPSI			L3			STRN			T10			C7			CLAV			RBAK			LBAK			LSHO			LUPA			LAEL			LAOL			LWTS			LWPS			LFRA			LIFD			LHPS			LHTS			RSHO			RUPA			RAEL			RAOL			RWTS			RWPS			RFRA			RIFD			RHTS			RHPS			RBHD			LFHD			RFHD			LBHD			LHIP			RHIP			RASI			LASI			LKNE			LTHI			LANK			LTIP			LTOE			LMT1			LMT5			LHEE			RKNE			RTHI			RANK			RTIP			RTOE			RMT1			RMT5			RHEE			
		X1	Y1	Z1	X2	Y2	Z2	X3	Y3	Z3	X4	Y4	Z4	X5	Y5	Z5	X6	Y6	Z6	X7	Y7	Z7	X8	Y8	Z8	X9	Y9	Z9	X10	Y10	Z10	X11	Y11	Z11	X12	Y12	Z12	X13	Y13	Z13	X14	Y14	Z14	X15	Y15	Z15	X16	Y16	Z16	X17	Y17	Z17	X18	Y18	Z18	X19	Y19	Z19	X20	Y20	Z20	X21	Y21	Z21	X22	Y22	Z22	X23	Y23	Z23	X24	Y24	Z24	X25	Y25	Z25	X26	Y26	Z26	X27	Y27	Z27	X28	Y28	Z28	X29	Y29	Z29	X30	Y30	Z30	X31	Y31	Z31	X32	Y32	Z32	X33	Y33	Z33	X34	Y34	Z34	X35	Y35	Z35	X36	Y36	Z36	X37	Y37	Z37	X38	Y38	Z38	X39	Y39	Z39	X40	Y40	Z40	X41	Y41	Z41	X42	Y42	Z42	X43	Y43	Z43	X44	Y44	Z44	X45	Y45	Z45	X46	Y46	Z46	X47	Y47	Z47	X48	Y48	Z48	X49	Y49	Z49	X50	Y50	Z50	X51	Y51	Z51	X52	Y52	Z52	X53	Y53	Z53	

1	0	-1260.273315429688	965.2550048828125	-514.6228637695312	-1251.97509765625	961.9275512695312	-655.7666625976562	-1245.109985351562	1048.212158203125	-574.4176635742188	-987.8289184570312	1265.680908203125	-573.3873901367188	-1268.582275390625	1168.894653320312	-584.71923828125	-1224.522583007812	1442.076171875	-569.12939453125	-1032.96826171875	1376.259643554688	-577.20068359375	-1280.18115234375	1316.646484375	-478.402099609375	-1250.068115234375	1393.480102539062	-670.0287475585938	-1147.862548828125	1424.718383789062	-747.72802734375	-1145.707641601562	1304.921508789062	-845.6721801757812	-1110.555541992188	1089.062866210938	-874.1122436523438	-1192.0439453125	1072.705200195312	-812.6642456054688	-1024.392822265625	891.0921020507812	-821.7094116210938	-1066.009399414062	872.6122436523438	-881.601318359375	-1085.19140625	1002.147766113281	-881.7633666992188	-1021.5146484375	726.2652587890625	-807.3045654296875	-1051.553588867188	794.0036010742188	-879.6075439453125	-1000.313415527344	806.6206665039062	-827.5423583984375	-1162.735717773438	1417.9658203125	-405.8949584960938	-1181.35302734375	1355.161743164062	-331.8113098144531	-1160.41064453125	1067.941040039062	-277.4053955078125	-1209.838500976562	1049.0517578125	-319.3413391113281	-1046.423950195312	871.044921875	-330.4336547851562	-1109.919677734375	850.9017333984375	-271.1491088867188	-1152.423217773438	1009.31689453125	-269.3463745117188	-1035.034790039062	716.0687255859375	-328.5684509277344	-1023.278503417969	775.5269775390625	-318.5568542480469	-1085.483276367188	765.8784790039062	-274.687255859375	-1197.95947265625	1641.876953125	-504.7079772949219	-1007.740661621094	1680.131103515625	-576.36572265625	-1071.7998046875	1678.177978515625	-462.3904113769531	-1125.876586914062	1646.68896484375	-667.1459350585938	-1113.198486328125	860.8247680664062	-766.4459228515625	-1152.852783203125	864.0554809570312	-369.8157043457031	-1040.197509765625	905.4891967773438	-425.2981567382812	-1017.137268066406	899.5941162109375	-683.7667236328125	-1137.384399414062	443.3585205078125	-728.8241577148438	-1100.71923828125	593.8436279296875	-750.9365234375	-1228.386840820312	40.15671157836914	-719.1680908203125	-1153.523315429688	297.2777404785156	-741.5099487304688	-992.8365478515625	44.68339920043945	-658.7201538085938	-1065.306274414062	52.34039306640625	-625.3709106445312	-1074.775634765625	44.48937225341797	-739.9473876953125	-1269.016845703125	47.01973342895508	-652.1195678710938	-1130.498413085938	470.2975463867188	-392.2719421386719	-1107.155151367188	730.318115234375	-357.3884582519531	-1185.926147460938	44.81849670410156	-380.9398193359375	-1132.235473632812	328.9206237792969	-380.2633361816406	-979.7613525390625	47.358642578125	-456.1256103515625	-1046.61865234375	52.06845474243164	-483.9146423339844	-1048.067260742188	48.11290740966797	-375.8447570800781	-1258.079345703125	36.86221313476562	-419.7245788574219	
2	0.01	-1260.227661132812	965.2744750976562	-514.6039428710938	-1251.930297851562	961.9514770507812	-655.7499389648438	-1245.013549804688	1048.227905273438	-574.467041015625	-987.6851806640625	1265.662353515625	-573.3282470703125	-1268.510131835938	1168.890625	-584.7354736328125	-1224.470092773438	1442.074340820312	-569.1173095703125	-1032.875732421875	1376.255249023438	-577.1788940429688	-1280.135009765625	1316.629760742188	-478.4158935546875	-1249.986328125	1393.465576171875	-670.0234375	-1147.786865234375	1424.7197265625	-747.719970703125	-1145.593627929688	1304.910766601562	-845.6575317382812	-1110.35888671875	1089.06494140625	-874.0385131835938	-1191.905639648438	1072.695556640625	-812.6503295898438	-1024.221923828125	891.2093505859375	-821.623779296875	-1065.809448242188	872.559326171875	-881.4581298828125	-1085.046264648438	1002.176086425781	-881.714111328125	-1021.505187988281	726.60986328125	-806.4943237304688	-1051.319946289062	793.9481201171875	-879.4622802734375	-1000.148254394531	806.6604614257812	-827.3728637695312	-1162.71484375	1417.943481445312	-405.8763427734375	-1181.337280273438	1355.126708984375	-331.8308410644531	-1160.416137695312	1067.894409179688	-277.4440002441406	-1209.846923828125	1049.001098632812	-319.38671875	-1046.3046875	871.0307006835938	-330.5050964355469	-1109.884155273438	850.8662109375	-271.2226867675781	-1152.4189453125	1009.269348144531	-269.4158935546875	-1034.919311523438	716.0732421875	-328.7192687988281	-1023.084106445312	775.5029296875	-318.8066711425781	-1085.4462890625	765.8281860351562	-274.7611999511719	-1197.9248046875	1641.877319335938	-504.6922607421875	-1007.618041992188	1680.083740234375	-576.19970703125	-1071.816528320312	1678.156127929688	-462.2864379882812	-1125.795288085938	1646.6943359375	-667.1049194335938	-1113.177001953125	860.8222045898438	-766.4330444335938	-1152.800048828125	864.0450439453125	-369.8519592285156	-1040.17529296875	905.4926147460938	-425.2914428710938	-1017.050903320312	899.6026000976562	-683.7623901367188	-1137.35595703125	443.373779296875	-728.8190307617188	-1100.713012695312	593.8470458984375	-750.93408203125	-1228.378784179688	40.15522384643555	-719.155517578125	-1153.498657226562	297.2929077148438	-741.4954223632812	-992.8294067382812	44.68720245361328	-658.7128295898438	-1065.303955078125	52.34785079956055	-625.3712158203125	-1074.770874023438	44.48205184936523	-739.9420776367188	-1269.013061523438	47.01753997802734	-652.1255493164062	-1130.501953125	470.2953796386719	-392.2590942382812	-1107.1943359375	730.3330078125	-357.2715454101562	-1185.92626953125	44.81828689575195	-380.942138671875	-1132.226806640625	328.9219055175781	-380.2590942382812	-979.7608642578125	47.35789489746094	-456.1262512207031	-1046.64208984375	52.07076263427734	-483.9254150390625	-1048.069213867188	48.10785293579102	-375.8415222167969	-1258.070556640625	36.85824203491211	-419.7253723144531	
3	0.02	-1260.166870117188	965.3016967773438	-514.5801391601562	-1251.869262695312	961.9824829101562	-655.72900390625	-1244.89697265625	1048.241821289062	-574.525390625	-987.5335083007812	1265.638061523438	-573.2638549804688	-1268.414184570312	1168.884033203125	-584.76123046875	-1224.401489257812	1442.069213867188	-569.1021728515625	-1032.766479492188	1376.244873046875	-577.14599609375	-1280.078247070312	1316.609497070312	-478.4342956542969	-1249.888549804688	1393.451416015625	-670.0194091796875	-1147.695556640625	1424.723266601562	-747.7086791992188	-1145.462646484375	1304.89892578125	-845.6361083984375	-1110.118896484375	1089.0673828125	-873.94873046875	-1191.731811523438	1072.686157226562	-812.6319580078125	-1023.984558105469	891.3572998046875	-821.5011596679688	-1065.546142578125	872.4964599609375	-881.273681640625	-1084.847045898438	1002.210632324219	-881.6544799804688	-1021.517578125	727.0208740234375	-805.5166625976562	-1050.99365234375	793.8822631835938	-879.2671508789062	-999.9356079101562	806.7092895507812	-827.1636352539062	-1162.685668945312	1417.914306640625	-405.8522644042969	-1181.318481445312	1355.080932617188	-331.8531188964844	-1160.425048828125	1067.832275390625	-277.49658203125	-1209.857666015625	1048.939208984375	-319.4466857910156	-1046.16162109375	871.0182495117188	-330.5927429199219	-1109.839721679688	850.8184204101562	-271.3295593261719	-1152.41455078125	1009.205505371094	-269.5057983398438	-1034.793823242188	716.0733642578125	-328.8949890136719	-1022.877746582031	775.4724731445312	-319.0942077636719	-1085.410766601562	765.7628784179688	-274.8657836914062	-1197.88134765625	1641.878295898438	-504.6742858886719	-1007.4658203125	1680.029907226562	-576.000732421875	-1071.835571289062	1678.13134765625	-462.1637268066406	-1125.684204101562	1646.697143554688	-667.05224609375	-1113.146484375	860.8208618164062	-766.4130249023438	-1152.733642578125	864.0328979492188	-369.8965148925781	-1040.14794921875	905.4962158203125	-425.2847595214844	-1016.954528808594	899.6043090820312	-683.75341796875	-1137.3212890625	443.3852844238281	-728.80908203125	-1100.706176757812	593.8505249023438	-750.9306030273438	-1228.36669921875	40.15304946899414	-719.137451171875	-1153.469848632812	297.3111267089844	-741.4777221679688	-992.82275390625	44.68974304199219	-658.7049560546875	-1065.2998046875	52.35478591918945	-625.3722534179688	-1074.766479492188	44.47562026977539	-739.9367065429688	-1269.010620117188	47.01580429077148	-652.129150390625	-1130.505126953125	470.2921142578125	-392.2440185546875	-1107.236206054688	730.3482055664062	-357.1367492675781	-1185.926635742188	44.81900024414062	-380.9413757324219	-1132.217529296875	328.9222106933594	-380.2548828125	-979.7604370117188	47.35708236694336	-456.1263427734375	-1046.664672851562	52.07241821289062	-483.9359130859375	-1048.070922851562	48.10370635986328	-375.8377075195312	-1258.0625	36.85472106933594	-419.7251586914062	
4	0.03	-1260.092163085938	965.3363037109375	-514.5531616210938	-1251.792602539062	962.0194091796875	-655.7045288085938	-1244.767333984375	1048.251098632812	-574.5872192382812	-987.3900146484375	1265.608276367188	-573.1997680664062	-1268.297119140625	1168.87451171875	-584.798095703125	-1224.318237304688	1442.060302734375	-569.0849609375	-1032.6474609375	1376.2265625	-577.1006469726562	-1280.013671875	1316.586547851562	-478.4567565917969	-1249.7802734375	1393.4384765625	-670.0167846679688	-1147.593383789062	1424.72900390625	-747.6937866210938	-1145.324462890625	1304.887573242188	-845.6079711914062	-1109.849365234375	1089.069946289062	-873.8478393554688	-1191.529296875	1072.677978515625	-812.6098022460938	-1023.683776855469	891.52880859375	-821.3395385742188	-1065.225463867188	872.4295654296875	-881.055908203125	-1084.595458984375	1002.248840332031	-881.5880126953125	-1021.547180175781	727.474853515625	-804.4364624023438	-1050.574584960938	793.8126831054688	-879.0264282226562	-999.6807861328125	806.765625	-826.9227905273438	-1162.648681640625	1417.878662109375	-405.8233337402344	-1181.297607421875	1355.025756835938	-331.8761291503906	-1160.43701171875	1067.755493164062	-277.5632629394531	-1209.869873046875	1048.86865234375	-319.5222473144531	-1046.0078125	871.0086059570312	-330.69482421875	-1109.788818359375	850.7587280273438	-271.4716796875	-1152.410278320312	1009.126037597656	-269.6134033203125	-1034.673950195312	716.0663452148438	-329.0820617675781	-1022.678161621094	775.434326171875	-319.3981018066406	-1085.38525390625	765.6844482421875	-275.0016174316406	-1197.830932617188	1641.880249023438	-504.6555480957031	-1007.292602539062	1679.975341796875	-575.7815551757812	-1071.854736328125	1678.106201171875	-462.0309143066406	-1125.542358398438	1646.695556640625	-666.9891967773438	-1113.106201171875	860.8211669921875	-766.3853149414062	-1152.654907226562	864.0198974609375	-369.9468688964844	-1040.115966796875	905.4995727539062	-425.2791442871094	-1016.856872558594	899.59521484375	-683.739501953125	-1137.281982421875	443.3910217285156	-728.7938842773438	-1100.698974609375	593.8538208007812	-750.92578125	-1228.350830078125	40.15017700195312	-719.1144409179688	-1153.43896484375	297.331298828125	-741.45751953125	-992.8176879882812	44.69028472900391	-658.6972045898438	-1065.295043945312	52.36041259765625	-625.3738403320312	-1074.763061523438	44.47093200683594	-739.9317626953125	-1269.009887695312	47.01487731933594	-652.1292114257812	-1130.50732421875	470.2875671386719	-392.2278137207031	-1107.273559570312	730.3611450195312	-356.9989624023438	-1185.927124023438	44.82067489624023	-380.9369506835938	-1132.208618164062	328.9210205078125	-380.2507019042969	-979.76025390625	47.35622406005859	-456.125732421875	-1046.682861328125	52.07342910766602	-483.9445495605469	-1048.071899414062	48.10126876831055	-375.8341674804688	-1258.05712890625	36.85234451293945	-419.7237854003906	
